<svg width="94" height="94" viewBox="0 0 94 94" fill="none" xmlns="http://www.w3.org/2000/svg">
<circle cx="47" cy="47" r="46.7602" stroke="#F2C438" stroke-width="0.479592"/>
<path d="M33.1777 28.9854H35.707C36.6218 28.9855 37.4279 29.57 37.7207 30.4238L37.7725 30.5977L39.8086 38.749V38.75C39.9102 39.1564 39.8901 39.5837 39.75 39.9785C39.6273 40.3241 39.4177 40.6313 39.1426 40.8711L39.0205 40.9697L36.6387 42.7568C35.9438 43.2769 35.6741 44.1578 35.9561 44.9248V44.9258C37.0626 47.9351 38.8099 50.6683 41.0771 52.9355C43.3444 55.2028 46.0776 56.9501 49.0869 58.0566V58.0557C49.8096 58.3218 50.6238 58.0976 51.1504 57.5029L51.252 57.3789L51.2549 57.375L53.043 54.9922C53.2944 54.657 53.6393 54.4029 54.0342 54.2627C54.3796 54.1401 54.75 54.1087 55.1094 54.1709L55.2627 54.2041H55.2637L63.415 56.2402C64.362 56.4778 65.0273 57.3297 65.0273 58.3076V60.835C65.0273 61.8798 64.6384 62.8844 63.9404 63.6553L63.7969 63.8066C63.0088 64.5947 61.9397 65.037 60.8252 65.0371H56.6777C41.379 65.037 28.9757 52.6337 28.9756 37.335V33.1875C28.9756 32.1426 29.3645 31.1381 30.0625 30.3672L30.2061 30.2158C30.945 29.4769 31.9309 29.0417 32.9697 28.9902L33.1777 28.9854Z" fill="#F2C438" stroke="#F2C438" stroke-width="2.6535"/>
</svg>
