<svg width="94" height="94" viewBox="0 0 94 94" fill="none" xmlns="http://www.w3.org/2000/svg">
<circle cx="47" cy="47" r="46.6071" stroke="#F2C438" stroke-width="0.785714"/>
<path d="M23.4609 39.3271V58.3118C23.4609 60.0723 24.1603 61.7607 25.4052 63.0056C26.65 64.2504 28.3384 64.9498 30.0989 64.9498H63.2889C65.0494 64.9498 66.7378 64.2504 67.9826 63.0056C69.2275 61.7607 69.9268 60.0723 69.9268 58.3118V39.3271L50.1722 51.4813C49.1261 52.1249 47.9221 52.4656 46.6939 52.4656C45.4657 52.4656 44.2616 52.1249 43.2156 51.4813L23.4609 39.3271Z" fill="#F2C438"/>
<path d="M69.9268 35.428V35.0784C69.9268 33.3179 69.2275 31.6295 67.9826 30.3847C66.7378 29.1398 65.0494 28.4404 63.2889 28.4404H30.0989C28.3384 28.4404 26.65 29.1398 25.4052 30.3847C24.1603 31.6295 23.4609 33.3179 23.4609 35.0784V35.428L44.9547 48.6553C45.4778 48.9771 46.0798 49.1475 46.6939 49.1475C47.308 49.1475 47.91 48.9771 48.433 48.6553L69.9268 35.428Z" fill="#F2C438"/>
</svg>
