<svg width="94" height="94" viewBox="0 0 94 94" fill="none" xmlns="http://www.w3.org/2000/svg">
<circle cx="47" cy="47" r="46.6071" stroke="#F2C438" stroke-width="0.785714"/>
<path fill-rule="evenodd" clip-rule="evenodd" d="M31.2879 67.4999C32.1612 67.6571 33.0468 67.7356 33.9342 67.7345C36.7387 67.7383 39.4871 66.949 41.8622 65.4577C43.5748 65.8604 45.367 66.075 47.2102 66.075C58.986 66.075 68.7836 57.2907 68.7836 46.161C68.7836 35.0313 58.986 26.2471 47.2102 26.2471C35.4344 26.2471 25.6367 35.0313 25.6367 46.161C25.6367 51.4913 27.9047 56.3105 31.5534 59.8618C32.0667 60.3619 32.1663 60.8089 32.1154 61.0633C31.8419 62.4397 31.222 63.7237 30.3143 64.7939C30.1258 65.0163 29.9993 65.2845 29.9475 65.5715C29.8957 65.8584 29.9203 66.1539 30.019 66.4283C30.1177 66.7026 30.287 66.9461 30.5097 67.1343C30.7325 67.3224 31.0009 67.4485 31.2879 67.4999ZM38.9127 43.6718C38.2525 43.6718 37.6194 43.934 37.1525 44.4009C36.6857 44.8677 36.4234 45.5008 36.4234 46.161C36.4234 46.8212 36.6857 47.4544 37.1525 47.9212C37.6194 48.388 38.2525 48.6503 38.9127 48.6503C39.5729 48.6503 40.206 48.388 40.6729 47.9212C41.1397 47.4544 41.4019 46.8212 41.4019 46.161C41.4019 45.5008 41.1397 44.8677 40.6729 44.4009C40.206 43.934 39.5729 43.6718 38.9127 43.6718ZM44.7209 46.161C44.7209 45.5008 44.9832 44.8677 45.45 44.4009C45.9168 43.934 46.55 43.6718 47.2102 43.6718C47.8704 43.6718 48.5035 43.934 48.9703 44.4009C49.4372 44.8677 49.6994 45.5008 49.6994 46.161C49.6994 46.8212 49.4372 47.4544 48.9703 47.9212C48.5035 48.388 47.8704 48.6503 47.2102 48.6503C46.55 48.6503 45.9168 48.388 45.45 47.9212C44.9832 47.4544 44.7209 46.8212 44.7209 46.161ZM55.5077 43.6718C54.8475 43.6718 54.2143 43.934 53.7475 44.4009C53.2807 44.8677 53.0184 45.5008 53.0184 46.161C53.0184 46.8212 53.2807 47.4544 53.7475 47.9212C54.2143 48.388 54.8475 48.6503 55.5077 48.6503C56.1678 48.6503 56.801 48.388 57.2678 47.9212C57.7346 47.4544 57.9969 46.8212 57.9969 46.161C57.9969 45.5008 57.7346 44.8677 57.2678 44.4009C56.801 43.934 56.1678 43.6718 55.5077 43.6718Z" fill="#F2C438"/>
</svg>
