<svg width="76" height="60" viewBox="0 0 76 60" fill="none" xmlns="http://www.w3.org/2000/svg">
<path d="M15.6546 23.413C16.5818 17.5846 23.8674 11.3588 29.5634 11.2263C29.9608 11.2263 30.3581 11.0938 30.6231 10.8289C30.888 10.6964 31.1529 10.564 31.2854 10.1666C33.2724 6.45758 32.2127 3.54336 28.901 1.159C25.0596 -1.62276 18.9662 1.159 15.9195 3.67582C8.23658 10.0341 0.421169 21.0285 0.818562 31.4934C-0.506083 38.5142 -0.241154 46.0645 1.74581 52.2903C3.07046 56.2642 6.91193 58.2512 10.8859 58.5161C14.8598 58.7813 23.0726 59.9732 26.6491 57.5891C30.2257 55.2045 30.4906 50.5683 30.888 46.5945C31.2854 42.2232 32.4776 34.0102 28.7686 30.5661C25.0596 27.2545 14.4624 30.831 15.6546 23.413Z" fill="#050B77"/>
<path d="M59.3655 23.413C60.2928 17.5846 67.5781 11.3588 73.2743 11.2263C73.6717 11.2263 74.0691 11.0938 74.334 10.8289C74.5992 10.6964 74.8639 10.564 74.9966 10.1666C76.9835 6.45758 75.9238 3.54336 72.6122 1.159C68.7707 -1.62276 62.6774 1.159 59.6305 3.67582C51.9475 10.0341 44.1321 21.0287 44.5295 31.4934C43.2049 38.5142 43.4698 46.0645 45.4565 52.2903C46.7812 56.2642 50.6227 58.2512 54.5968 58.5161C58.5708 58.7813 66.7836 59.9732 70.3601 57.5891C73.9364 55.2045 74.2016 50.5683 74.599 46.5945C74.9964 42.2232 76.1885 34.0102 72.4795 30.5661C68.7705 27.2545 58.0409 30.831 59.3655 23.413Z" fill="#050B77"/>
</svg>
