<svg width="20" height="21" viewBox="0 0 20 21" fill="none" xmlns="http://www.w3.org/2000/svg">
<path d="M9.7651 12.8271C10.4125 12.8271 11.0333 12.5699 11.4911 12.1122C11.9488 11.6544 12.206 11.0336 12.206 10.3862C12.206 9.73883 11.9488 9.11798 11.4911 8.66023C11.0333 8.20248 10.4125 7.94531 9.7651 7.94531C9.11774 7.94531 8.49689 8.20248 8.03914 8.66023C7.58138 9.11798 7.32422 9.73883 7.32422 10.3862C7.32422 11.0336 7.58138 11.6544 8.03914 12.1122C8.49689 12.5699 9.11774 12.8271 9.7651 12.8271Z" fill="#89898B"/>
<path fill-rule="evenodd" clip-rule="evenodd" d="M1.08038 9.93437C2.29106 6.29664 5.72213 3.67188 9.7683 3.67188C13.812 3.67188 17.2415 6.2942 18.4538 9.92867C18.5514 10.2232 18.5514 10.5405 18.4538 10.8342C17.2439 14.472 13.812 17.0967 9.76667 17.0967C5.72294 17.0967 2.29268 14.4744 1.08119 10.8399C0.983352 10.546 0.983352 10.2283 1.08119 9.93437H1.08038ZM14.039 10.3843C14.039 11.5172 13.589 12.6037 12.7879 13.4047C11.9869 14.2058 10.9004 14.6559 9.76748 14.6559C8.6346 14.6559 7.54811 14.2058 6.74704 13.4047C5.94597 12.6037 5.49594 11.5172 5.49594 10.3843C5.49594 9.25142 5.94597 8.16494 6.74704 7.36386C7.54811 6.56279 8.6346 6.11276 9.76748 6.11276C10.9004 6.11276 11.9869 6.56279 12.7879 7.36386C13.589 8.16494 14.039 9.25142 14.039 10.3843Z" fill="#89898B"/>
</svg>
