<svg width="21" height="19" viewBox="0 0 21 19" fill="none" xmlns="http://www.w3.org/2000/svg">
<path fill-rule="evenodd" clip-rule="evenodd" d="M17.7624 7.74113V1.02719C17.7624 0.744738 17.6348 0.487727 17.4283 0.302622L17.4274 0.301745C17.2218 0.116657 16.9364 0.000876979 16.6228 0.000876979L1.13963 0C0.826972 0 0.54159 0.115788 0.335078 0.301766C0.128585 0.487729 0 0.744758 0 1.02634V14.9703C0 15.2527 0.128573 15.5097 0.33408 15.6957C0.540573 15.8817 0.825974 15.9966 1.13961 15.9966H8.90264L9.05167 15.6483C9.08673 15.5685 9.13933 15.5001 9.20751 15.4483C9.23186 15.4299 9.25719 15.4132 9.28543 15.3983C9.30005 15.3702 9.3205 15.3439 9.3468 15.3202L11.4585 13.4185L2.03778 13.4194C1.86538 13.4194 1.72609 13.2939 1.72609 13.1387C1.72609 12.9834 1.86538 12.8579 2.03778 12.8579H12.0809L14.1682 10.9781H2.03781C1.8654 10.9781 1.72612 10.8527 1.72612 10.6974C1.72612 10.5422 1.8654 10.4167 2.03781 10.4167H14.7926L17.7624 7.74113ZM17.7624 12.0175V14.97C17.7624 15.2524 17.6339 15.5086 17.4273 15.6946C17.2208 15.8805 16.9355 15.9963 16.6228 15.9963L13.3433 15.9972L17.7624 12.0175ZM18.8212 7.58057L20.3144 8.92531L20.5871 8.68146C20.7926 8.49637 20.8959 8.2525 20.8959 8.00865C20.8959 7.76567 20.7926 7.5218 20.5871 7.33672C20.3816 7.15163 20.1108 7.05864 19.841 7.05864C19.5702 7.05864 19.2994 7.15162 19.0939 7.33672L18.8212 7.58057ZM11.034 17.2367L8.6895 18.0507L9.39566 16.4007C9.40345 16.3858 9.41027 16.3718 9.41514 16.356L9.59339 15.9393L10.1846 16.4718L10.1895 16.477L10.32 16.5946L11.034 17.2367ZM10.5333 15.992L10.0073 15.5183L18.2885 8.06126L18.3811 7.97793L18.907 8.45162L10.5333 15.992ZM19.3484 8.84822L19.8743 9.32191L11.5007 16.8631L10.9747 16.3894L19.3484 8.84822ZM2.03794 2.42621H7.11273V6.76047H2.03794V2.42621ZM8.99433 3.37181C8.99433 3.21655 9.13362 3.09111 9.30602 3.09111H15.7248C15.8972 3.09111 16.0365 3.21655 16.0365 3.37181C16.0365 3.52708 15.8972 3.65252 15.7248 3.65252H9.30602C9.13362 3.65252 8.99433 3.52708 8.99433 3.37181ZM15.7238 5.53322C15.8962 5.53322 16.0355 5.65866 16.0355 5.81392C16.0355 5.96918 15.8962 6.09462 15.7238 6.09462L9.30602 6.09374C9.13362 6.09374 8.99433 5.96831 8.99433 5.81304C8.99433 5.65778 9.13362 5.53234 9.30602 5.53234L15.7238 5.53322ZM1.72601 8.25513C1.72601 8.09986 1.86529 7.97442 2.0377 7.97442H15.7238C15.8962 7.97442 16.0355 8.09986 16.0355 8.25513C16.0355 8.41039 15.8962 8.53583 15.7238 8.53583H2.0377C1.86529 8.53583 1.72601 8.41039 1.72601 8.25513Z" fill="#7096D1"/>
</svg>
