<svg width="18" height="21" viewBox="0 0 18 21" fill="none" xmlns="http://www.w3.org/2000/svg">
<path d="M16.441 4.59519L14.5404 1.47757L14.2043 1.51256L16.0815 4.786H14.5355H13.9983H12.4523L14.3013 1.56173L14.0162 1.44531L12.0927 4.59519C12.0215 4.72021 11.9841 4.86161 11.9841 5.00554C11.9841 6.26173 13.0025 7.28001 14.2586 7.28001H14.2587C14.2614 7.28001 14.2724 7.28001 14.275 7.28001H14.2752C15.5313 7.28001 16.5496 6.26173 16.5496 5.00554C16.5496 4.8616 16.5122 4.72021 16.441 4.59519Z" fill="#7096D1"/>
<path d="M14.5985 0.962962L9.97632 0.898438L9.99445 2.02759L14.6242 1.56656C14.779 1.55116 14.8968 1.42098 14.8968 1.2655C14.8968 1.10004 14.7639 0.965273 14.5985 0.962962Z" fill="#7096D1"/>
<path d="M0.98725 4.59519L2.88792 1.47757L3.224 1.51256L1.3468 4.786H2.89282H3.42999H4.97601L3.12701 1.56173L3.41208 1.44531L5.33556 4.59519C5.40674 4.72021 5.44416 4.86161 5.44416 5.00554C5.44416 6.26173 4.42584 7.28001 3.16969 7.28001H3.16956C3.16691 7.28001 3.15591 7.28001 3.15326 7.28001H3.15313C1.89698 7.28001 0.878662 6.26173 0.878662 5.00554C0.878655 4.8616 0.916072 4.72021 0.98725 4.59519Z" fill="#7096D1"/>
<path d="M2.82934 0.962962L7.45151 0.898438L7.43337 2.02759L2.80359 1.56656C2.64886 1.55116 2.53101 1.42098 2.53101 1.2655C2.53101 1.10004 2.66391 0.965273 2.82934 0.962962Z" fill="#7096D1"/>
<path d="M9.74451 9.34166C9.43648 9.16774 9.08367 9.07516 8.71392 9.07516C8.34417 9.07516 7.99138 9.16774 7.68335 9.34166L7.8188 0.881037C7.8228 0.636633 7.92414 0.416415 8.08587 0.257172C8.2476 0.0981027 8.46933 0 8.71392 0C9.20273 0 9.60125 0.392228 9.60906 0.881037L9.74451 9.34166Z" fill="#7096D1"/>
<path d="M4.65326 11.4093L4.02216 11.2051C3.75243 11.4582 3.40242 11.6111 3.01999 11.6111C2.98871 11.6111 2.95766 11.61 2.92681 11.6079C3.55453 11.5003 4.03492 10.9029 4.03492 10.1819C4.03492 9.38476 3.44773 8.83594 2.72341 8.83594C1.99908 8.83594 1.41189 9.38476 1.41189 10.1819C1.41189 10.5353 1.52749 10.8589 1.71911 11.1098L0.793717 11.4093C0.318951 11.5629 -0.000244141 12.0013 -0.000244141 12.5006V15.4948C-0.000244141 16.1299 0.432633 16.6717 1.03304 16.8234V19.6807H4.41395V16.8234C5.01434 16.6717 5.44706 16.1299 5.44706 15.4948V12.5006C5.44707 12.0015 5.1279 11.5629 4.65326 11.4093Z" fill="#7096D1"/>
<path d="M10.6454 12.4093L10.0143 12.2051C9.7446 12.4582 9.39459 12.6111 9.01217 12.6111C8.98088 12.6111 8.94982 12.6099 8.91901 12.6079C9.54673 12.5003 10.0271 11.9029 10.0271 11.1819C10.0271 10.3848 9.43993 9.83594 8.7156 9.83594C7.99126 9.83594 7.40409 10.3848 7.40409 11.1819C7.40409 11.5353 7.51967 11.8589 7.7113 12.1098L6.7859 12.4093C6.31113 12.5629 5.99194 13.0013 5.99194 13.5006V16.4948C5.99194 17.1299 6.42481 17.6717 7.02523 17.8234V20.6807H10.4061V17.8234C11.0065 17.6717 11.4392 17.1299 11.4392 16.4948V13.5006C11.4392 13.0015 11.1201 12.5629 10.6454 12.4093Z" fill="#7096D1"/>
<path d="M16.6337 11.2921L16.0026 11.0879C15.7329 11.341 15.3829 11.4939 15.0005 11.4939C14.9692 11.4939 14.9381 11.4928 14.9073 11.4907C15.535 11.3832 16.0154 10.7857 16.0154 10.0647C16.0154 9.26757 15.4282 8.71875 14.7039 8.71875C13.9796 8.71875 13.3924 9.26757 13.3924 10.0647C13.3924 10.4181 13.508 10.7417 13.6996 10.9927L12.7742 11.2921C12.2994 11.4457 11.9802 11.8841 11.9802 12.3834V15.3776C11.9802 16.0127 12.4131 16.5545 13.0135 16.7062V19.5635H16.3944V16.7062C16.9948 16.5545 17.4275 16.0127 17.4275 15.3776V12.3834C17.4275 11.8843 17.1084 11.4457 16.6337 11.2921Z" fill="#7096D1"/>
</svg>
