<svg width="61" height="61" viewBox="0 0 61 61" fill="none" xmlns="http://www.w3.org/2000/svg">
<path d="M30.7461 24.2015C34.2382 24.2015 37.1206 27.0839 37.1206 30.5761C37.1206 34.1236 34.2382 36.9506 30.7461 36.9506C27.1985 36.9506 24.3716 34.1236 24.3716 30.5761C24.3716 27.0839 27.1985 24.2015 30.7461 24.2015ZM30.7461 34.7334C33.0188 34.7334 34.848 32.9041 34.848 30.5761C34.848 28.3034 33.0188 26.4742 30.7461 26.4742C28.418 26.4742 26.5888 28.3034 26.5888 30.5761C26.5888 32.9041 28.4735 34.7334 30.7461 34.7334ZM38.839 23.9798C38.839 24.8113 38.1738 25.4764 37.3424 25.4764C36.5109 25.4764 35.8457 24.8113 35.8457 23.9798C35.8457 23.1483 36.5109 22.4832 37.3424 22.4832C38.1738 22.4832 38.839 23.1483 38.839 23.9798ZM43.0517 25.4764C43.1626 27.5274 43.1626 33.6802 43.0517 35.7311C42.9409 37.7266 42.4974 39.445 41.0562 40.9416C39.615 42.3828 37.8412 42.8262 35.8457 42.9371C33.7948 43.048 27.642 43.048 25.5911 42.9371C23.5955 42.8262 21.8772 42.3828 20.3806 40.9416C18.9394 39.445 18.4959 37.7266 18.3851 35.7311C18.2742 33.6802 18.2742 27.5274 18.3851 25.4764C18.4959 23.4809 18.9394 21.7071 20.3806 20.2659C21.8772 18.8247 23.5955 18.3813 25.5911 18.2704C27.642 18.1596 33.7948 18.1596 35.8457 18.2704C37.8412 18.3813 39.615 18.8247 41.0562 20.2659C42.4974 21.7071 42.9409 23.4809 43.0517 25.4764ZM40.3911 37.8929C41.0562 36.2854 40.8899 32.4053 40.8899 30.5761C40.8899 28.8023 41.0562 24.9221 40.3911 23.2592C39.9476 22.206 39.1162 21.3191 38.063 20.9311C36.4 20.2659 32.5199 20.4322 30.7461 20.4322C28.9169 20.4322 25.0367 20.2659 23.4293 20.9311C22.3206 21.3745 21.4892 22.206 21.0457 23.2592C20.3806 24.9221 20.5469 28.8023 20.5469 30.5761C20.5469 32.4053 20.3806 36.2854 21.0457 37.8929C21.4892 39.0015 22.3206 39.833 23.4293 40.2764C25.0367 40.9416 28.9169 40.7753 30.7461 40.7753C32.5199 40.7753 36.4 40.9416 38.063 40.2764C39.1162 39.833 40.003 39.0015 40.3911 37.8929Z" fill="#B1B1B2"/>
</svg>
