<svg width="61" height="61" viewBox="0 0 61 61" fill="none" xmlns="http://www.w3.org/2000/svg">
<path d="M23.8883 41.2188H18.7333V24.645H23.8883V41.2188ZM21.2831 22.4277C19.6756 22.4277 18.3453 21.042 18.3453 19.379C18.3453 17.7716 19.6756 16.4412 21.2831 16.4412C22.946 16.4412 24.2763 17.7716 24.2763 19.379C24.2763 21.042 22.946 22.4277 21.2831 22.4277ZM43.1228 41.2188H38.0232V33.1813C38.0232 31.2412 37.9677 28.8023 35.3071 28.8023C32.6464 28.8023 32.2584 30.8532 32.2584 33.015V41.2188H27.1033V24.645H32.0366V26.9176H32.0921C32.8127 25.6427 34.4756 24.2569 36.97 24.2569C42.1805 24.2569 43.1782 27.6937 43.1782 32.1281V41.2188H43.1228Z" fill="#B1B1B2"/>
</svg>
