<svg width="52" height="53" viewBox="0 0 52 53" fill="none" xmlns="http://www.w3.org/2000/svg">
<g clip-path="url(#clip0_100_1535)">
<path d="M8.00054 27.925L9.11063 19.8859L9.65036 15.9964C9.84091 14.6267 10.122 13.238 10.1967 11.8581C10.2266 11.3588 9.74488 11.3791 9.39253 11.5262C8.93232 11.7178 8.44854 12.1718 8.34278 12.6715C8.05045 14.0362 7.93449 15.4529 7.74363 16.8345L7.2039 20.724L6.08901 28.7653C6.01592 29.2848 6.58597 29.2407 6.91912 29.1027C7.36493 28.9178 7.92776 28.4326 7.9983 27.9202L8.00054 27.925Z" fill="#F2C438"/>
<path d="M18.8117 31.0963C25.4753 24.843 32.2013 18.6484 38.7935 12.3174C39.0246 12.0984 39.5771 11.5537 39.2809 11.195C38.9937 10.8555 38.314 11.2783 38.0929 11.481C31.3579 17.6564 24.7448 23.9679 18.0835 30.2259C17.8403 30.4565 17.2634 31.0242 17.5782 31.3976C17.8722 31.7515 18.5925 31.3156 18.8187 31.0988L18.8117 31.0963Z" fill="#F2C438"/>
<path d="M21.4146 40.849L29.3723 41.8977L33.2862 42.4144C34.6325 42.5924 35.9936 42.8397 37.3473 42.9207C37.8089 42.9449 38.3106 42.5292 38.5685 42.1924C38.7035 42.0182 39.0812 41.3622 38.6404 41.2699C37.304 40.9878 35.9228 40.8728 34.5716 40.6969L30.6577 40.1803L22.5678 39.1115C21.845 39.0164 20.3493 40.7093 21.4098 40.8513L21.4146 40.849Z" fill="#F2C438"/>
</g>
<defs>
<clipPath id="clip0_100_1535">
<rect width="37.597" height="40.3786" fill="white" transform="translate(0 15.9141) rotate(-25.0395)"/>
</clipPath>
</defs>
</svg>
