<svg width="22" height="22" viewBox="0 0 22 22" fill="none" xmlns="http://www.w3.org/2000/svg">
<path d="M11.9074 14.3797L15.243 11.044M15.243 11.044L11.9074 7.7084M15.243 11.044H6.90391M21.0804 11.044C21.0804 12.3582 20.8216 13.6594 20.3187 14.8735C19.8158 16.0876 19.0787 17.1908 18.1494 18.12C17.2202 19.0492 16.117 19.7864 14.903 20.2892C13.6889 20.7921 12.3876 21.051 11.0735 21.051C9.75933 21.051 8.45807 20.7921 7.24397 20.2892C6.02988 19.7864 4.92672 19.0492 3.99749 18.12C3.06826 17.1908 2.33116 16.0876 1.82826 14.8735C1.32537 13.6594 1.06653 12.3582 1.06653 11.044C1.06653 8.39004 2.12083 5.84474 3.99749 3.96807C5.87416 2.09141 8.41946 1.03711 11.0735 1.03711C13.7275 1.03711 16.2728 2.09141 18.1494 3.96807C20.0261 5.84474 21.0804 8.39004 21.0804 11.044Z" stroke="#162766" stroke-opacity="0.59" stroke-width="0.833911" stroke-linecap="round" stroke-linejoin="round"/>
</svg>
