<svg width="24" height="24" viewBox="0 0 24 24" fill="none" xmlns="http://www.w3.org/2000/svg">
<g clip-path="url(#clip0_100_2405)">
<path d="M12 0.75C9.77497 0.75 7.59989 1.4098 5.74984 2.64597C3.89979 3.88213 2.45785 5.63914 1.60636 7.69481C0.754875 9.75048 0.532087 12.0125 0.966171 14.1948C1.40025 16.3771 2.47171 18.3816 4.04505 19.955C5.61839 21.5283 7.62295 22.5998 9.80524 23.0338C11.9875 23.4679 14.2495 23.2451 16.3052 22.3936C18.3609 21.5422 20.1179 20.1002 21.354 18.2502C22.5902 16.4001 23.25 14.225 23.25 12C23.2464 9.01743 22.0599 6.15806 19.9509 4.04906C17.8419 1.94006 14.9826 0.753633 12 0.75ZM12.6 4.87875L12.8288 4.65C12.9243 4.55455 13.0537 4.50094 13.1888 4.50094C13.3238 4.50094 13.4533 4.55455 13.5488 4.65L15.5438 6.645C15.6393 6.74048 15.6933 6.8699 15.6938 7.005C15.7163 7.24125 15.465 7.44 15.315 7.59375C15.2195 7.68919 15.09 7.7428 14.955 7.7428C14.82 7.7428 14.6905 7.68919 14.595 7.59375L12.6 5.59875C12.5046 5.50325 12.4509 5.37377 12.4509 5.23875C12.4509 5.10373 12.5046 4.97425 12.6 4.87875ZM12.1763 5.89125C12.1988 5.9175 12.2213 5.94 12.24 5.95875L14.235 7.95375C14.257 7.97574 14.2808 7.99581 14.3063 8.01375L12.4313 9.88875C12.4125 9.86625 12.39 9.84375 12.3675 9.82125L10.3725 7.8225C10.3516 7.80077 10.329 7.78071 10.305 7.7625L12.1763 5.89125ZM9.06376 8.41125L9.29252 8.1825C9.38845 8.08787 9.51778 8.03482 9.65252 8.03482C9.78727 8.03482 9.9166 8.08787 10.0125 8.1825L12.0075 10.1775C12.103 10.273 12.1566 10.4025 12.1566 10.5375C12.1566 10.6725 12.103 10.802 12.0075 10.8975L11.7788 11.1263C11.7318 11.1735 11.6761 11.211 11.6146 11.2366C11.5531 11.2622 11.4872 11.2753 11.4206 11.2753C11.3541 11.2753 11.2881 11.2622 11.2267 11.2366C11.1652 11.211 11.1094 11.1735 11.0625 11.1263L9.06376 9.13125C8.96831 9.03576 8.91469 8.90627 8.91469 8.77125C8.91469 8.63623 8.96831 8.50675 9.06376 8.41125ZM7.79251 12.3075C7.53937 12.3078 7.29487 12.2155 7.10503 12.048C6.9152 11.8806 6.79312 11.6495 6.76178 11.3983C6.73043 11.1471 6.79199 10.8932 6.93487 10.6842C7.07774 10.4752 7.29207 10.3257 7.53751 10.2638V9.70125C7.53751 9.63362 7.56437 9.56876 7.61219 9.52094C7.66001 9.47312 7.72487 9.44625 7.79251 9.44625C7.86014 9.44625 7.92499 9.47312 7.97282 9.52094C8.02064 9.56876 8.0475 9.63362 8.0475 9.70125V10.2638C8.27131 10.3202 8.46989 10.4497 8.61184 10.6318C8.75378 10.8138 8.83099 11.0379 8.83125 11.2687C8.83125 11.3364 8.80439 11.4012 8.75657 11.4491C8.70875 11.4969 8.64389 11.5238 8.57626 11.5238C8.50863 11.5238 8.44376 11.4969 8.39594 11.4491C8.34812 11.4012 8.32126 11.3364 8.32126 11.2687C8.32051 11.1643 8.28888 11.0625 8.23033 10.976C8.17178 10.8896 8.08894 10.8224 7.99226 10.7829C7.89558 10.7435 7.78939 10.7335 7.68707 10.7544C7.58475 10.7752 7.49089 10.8258 7.41732 10.8999C7.34374 10.974 7.29376 11.0683 7.27366 11.1707C7.25356 11.2732 7.26425 11.3793 7.30437 11.4757C7.3445 11.5721 7.41227 11.6545 7.49914 11.7124C7.58601 11.7703 7.68809 11.8012 7.79251 11.8012C8.04565 11.801 8.29015 11.8933 8.47999 12.0607C8.66984 12.2282 8.79192 12.4592 8.82326 12.7104C8.8546 12.9616 8.79304 13.2156 8.65016 13.4246C8.50729 13.6335 8.29295 13.7831 8.0475 13.845V14.4037C8.04648 14.4707 8.01916 14.5346 7.97145 14.5815C7.92374 14.6285 7.85947 14.6549 7.79251 14.6549C7.72554 14.6549 7.66127 14.6285 7.61356 14.5815C7.56585 14.5346 7.53853 14.4707 7.53751 14.4037V13.845C7.31317 13.7882 7.11423 13.6581 6.97225 13.4753C6.83027 13.2926 6.75337 13.0677 6.75376 12.8363C6.75533 12.7697 6.78289 12.7063 6.83054 12.6598C6.87819 12.6133 6.94215 12.5872 7.00876 12.5872C7.07536 12.5872 7.13932 12.6133 7.18697 12.6598C7.23462 12.7063 7.26218 12.7697 7.26376 12.8363C7.26338 12.9414 7.29424 13.0442 7.3524 13.1318C7.41056 13.2193 7.49342 13.2876 7.59045 13.328C7.68749 13.3684 7.79433 13.3791 7.89744 13.3586C8.00054 13.3382 8.09526 13.2877 8.16959 13.2133C8.24391 13.139 8.29448 13.0443 8.3149 12.9412C8.33531 12.8381 8.32465 12.7312 8.28425 12.6342C8.24386 12.5372 8.17556 12.4543 8.08801 12.3961C8.00046 12.338 7.89761 12.3071 7.79251 12.3075ZM5.75626 15.525C5.7564 15.3898 5.81018 15.2601 5.90579 15.1645C6.0014 15.0689 6.13104 15.0151 6.26625 15.015H13.845C13.9796 15.0159 14.1084 15.0701 14.2033 15.1656C14.2981 15.2612 14.3513 15.3904 14.3513 15.525V16.7475H5.75626V15.525ZM15.3638 18.99C15.3636 19.1252 15.3098 19.2549 15.2142 19.3505C15.1186 19.4461 14.989 19.4999 14.8538 19.5H5.25376C5.11913 19.4991 4.99033 19.4449 4.89548 19.3494C4.80064 19.2538 4.74744 19.1246 4.7475 18.99V17.7675C4.74744 17.6329 4.80064 17.5037 4.89549 17.4081C4.99033 17.3126 5.11913 17.2584 5.25376 17.2575H14.8538C14.989 17.2576 15.1186 17.3114 15.2142 17.407C15.3098 17.5026 15.3636 17.6323 15.3638 17.7675V18.99ZM13.0613 9.97875L14.3925 8.64375L17.265 11.5125L16.905 11.8725C16.68 12.0975 16.1513 12.63 15.9263 12.8475L13.0613 9.97875ZM18.3038 14.8387C18.1826 14.8389 18.0625 14.8152 17.9506 14.7689C17.8386 14.7225 17.7369 14.6545 17.6513 14.5687L16.2863 13.2075C16.5075 12.9863 17.04 12.4612 17.265 12.2325L17.6213 11.8725L18.9825 13.2338C19.1097 13.368 19.1949 13.5364 19.2279 13.7183C19.2608 13.9003 19.24 14.0879 19.168 14.2582C19.0959 14.4285 18.9758 14.5741 18.8224 14.6772C18.6689 14.7803 18.4886 14.8365 18.3038 14.8387Z" fill="#7096D1"/>
</g>
<defs>
<clipPath id="clip0_100_2405">
<rect width="24" height="24" fill="white"/>
</clipPath>
</defs>
</svg>
