<svg width="20" height="21" viewBox="0 0 20 21" fill="none" xmlns="http://www.w3.org/2000/svg">
<path d="M3.75166 18.6397C3.80632 18.9693 3.94274 19.28 4.14845 19.5433C4.35416 19.8066 4.6226 20.0141 4.92922 20.1469C5.23585 20.2797 5.57086 20.3335 5.90365 20.3034C6.23643 20.2733 6.55636 20.1603 6.83418 19.9746L9.5666 18.1524C9.73357 18.0448 9.92853 17.9887 10.1272 17.9912C13.7883 17.9668 16.8098 16.9854 18.2102 15.3662C20.5764 12.6289 20.5764 5.37113 18.2102 2.63383C16.7844 0.98535 13.7121 0 9.99338 0H9.99238C6.27314 0 3.20088 0.98438 1.77461 2.63379C-0.591618 5.37109 -0.591617 12.6289 1.77509 15.3672C2.24635 15.8825 2.80241 16.3132 3.41914 16.6406L3.75166 18.6397ZM9.99238 3.75C10.2396 3.75 10.4813 3.82331 10.6868 3.96066C10.8924 4.09801 11.0526 4.29324 11.1472 4.52165C11.2418 4.75005 11.2666 5.00139 11.2184 5.24386C11.1701 5.48634 11.0511 5.70907 10.8763 5.88388C10.7015 6.0587 10.4787 6.17775 10.2362 6.22598C9.99377 6.27421 9.74244 6.24946 9.51403 6.15485C9.28562 6.06024 9.0904 5.90002 8.95304 5.69446C8.81569 5.4889 8.74238 5.24723 8.74238 5C8.74237 4.83584 8.77469 4.67329 8.83751 4.52163C8.90032 4.36997 8.9924 4.23217 9.10847 4.11609C9.22455 4.00001 9.36235 3.90794 9.51401 3.84513C9.66568 3.78231 9.82823 3.74999 9.99238 3.75ZM7.99238 8.5C7.99235 8.36867 8.01819 8.23862 8.06843 8.11728C8.11868 7.99593 8.19233 7.88568 8.2852 7.79282C8.37806 7.69995 8.48832 7.62629 8.60966 7.57605C8.731 7.52581 8.86105 7.49997 8.99238 7.5H9.99238C10.1237 7.49997 10.2538 7.52581 10.3751 7.57605C10.4964 7.62629 10.6067 7.69995 10.6996 7.79282C10.7924 7.88568 10.8661 7.99593 10.9163 8.11728C10.9666 8.23862 10.9924 8.36867 10.9924 8.5V12.5C11.2576 12.5 11.512 12.6054 11.6995 12.7929C11.887 12.9804 11.9924 13.2348 11.9924 13.5C11.9924 13.7652 11.887 14.0196 11.6995 14.2071C11.512 14.3946 11.2576 14.5 10.9924 14.5H8.99238C8.72717 14.5 8.47281 14.3946 8.28528 14.2071C8.09774 14.0196 7.99238 13.7652 7.99238 13.5C7.99238 13.2348 8.09774 12.9804 8.28528 12.7929C8.47281 12.6054 8.72717 12.5 8.99238 12.5V9.5C8.86105 9.50003 8.731 9.47419 8.60966 9.42395C8.48832 9.37371 8.37806 9.30005 8.2852 9.20718C8.19233 9.11432 8.11868 9.00406 8.06843 8.88272C8.01819 8.76138 7.99235 8.63133 7.99238 8.5Z" fill="#7096D1"/>
</svg>
