<svg width="18" height="17" viewBox="0 0 18 17" fill="none" xmlns="http://www.w3.org/2000/svg">
<path d="M9 0.429688L17.159 8.58869C17.189 8.61869 17.219 8.64669 17.25 8.67469V14.8727C17.25 15.9077 16.41 16.7477 15.375 16.7477H12C11.8011 16.7477 11.6103 16.6687 11.4697 16.528C11.329 16.3874 11.25 16.1966 11.25 15.9977V11.4977C11.25 11.2988 11.171 11.108 11.0303 10.9674C10.8897 10.8267 10.6989 10.7477 10.5 10.7477H7.5C7.30109 10.7477 7.11032 10.8267 6.96967 10.9674C6.82902 11.108 6.75 11.2988 6.75 11.4977V15.9977C6.75 16.1966 6.67098 16.3874 6.53033 16.528C6.38968 16.6687 6.19891 16.7477 6 16.7477H2.625C2.12772 16.7477 1.65081 16.5501 1.29917 16.1985C0.947544 15.8469 0.75 15.37 0.75 14.8727V8.67469C0.781111 8.64686 0.811456 8.61818 0.841 8.58869L9 0.429688Z" fill="#F9F9F9"/>
</svg>
