<svg width="24" height="24" viewBox="0 0 24 24" fill="none" xmlns="http://www.w3.org/2000/svg">
<path d="M18.3054 15.7985L14.6334 14.0872C14.1054 13.8489 13.4814 13.9789 13.1214 14.3905L11.7774 15.9502C10.4574 15.322 9.47339 14.7154 8.32139 13.6539C7.09739 12.5491 6.42539 11.6176 5.75339 10.4695L7.45739 9.27802C7.91339 8.95308 8.05739 8.38984 7.79339 7.91326L5.89739 4.62051C5.56139 4.03561 4.74539 3.86231 4.14539 4.20891L1.81739 5.617C1.26539 5.94194 0.977387 6.50518 1.00139 7.09007C1.04939 7.69663 1.12139 8.45483 1.28939 8.97474C1.96139 11.336 3.59339 13.7622 5.89739 15.8202C8.17739 17.8782 10.8894 19.3513 13.4814 19.9795C14.0574 20.1095 14.8974 20.1961 15.5694 20.2394C16.2174 20.2828 16.8654 20.0011 17.2254 19.4812L18.7374 17.3583C19.1454 16.8167 18.9294 16.0802 18.3054 15.7985Z" fill="#7096D1"/>
<path d="M22.8639 3H11.2959C10.7679 3 10.3359 3.38993 10.3359 3.86651V4.42975L17.0799 6.98597L23.8239 4.42975V3.86651C23.8239 3.38993 23.3919 3 22.8639 3Z" fill="#7096D1"/>
<path d="M17.0799 8.39499C16.8639 8.39499 16.6719 8.35167 16.4799 8.28668L10.3359 5.96875V10.9729C10.3359 11.4495 10.7679 11.8394 11.2959 11.8394H22.8879C23.4159 11.8394 23.8479 11.4495 23.8479 10.9729V5.96875L17.6799 8.28668C17.4879 8.35167 17.2959 8.39499 17.0799 8.39499Z" fill="#7096D1"/>
</svg>
