<svg width="20" height="21" viewBox="0 0 20 21" fill="none" xmlns="http://www.w3.org/2000/svg">
<path fill-rule="evenodd" clip-rule="evenodd" d="M12.8514 4.28484C12.8513 3.71743 13.0489 3.16774 13.4103 2.73025C13.7716 2.29277 14.2741 1.99484 14.8312 1.88768C15.3884 1.78052 15.9656 1.87083 16.4634 2.14307C16.9612 2.41532 17.3486 2.85249 17.5591 3.37944C17.7695 3.90639 17.7898 4.49018 17.6164 5.03045C17.443 5.57072 17.0868 6.03371 16.6091 6.33983C16.1313 6.64594 15.5619 6.77605 14.9986 6.70779C14.4353 6.63953 13.9134 6.37716 13.5226 5.96579L6.67104 9.77276C6.77571 10.1756 6.77571 10.5985 6.67104 11.0013L13.5226 14.8083C13.9321 14.3778 14.4845 14.1114 15.0763 14.0591C15.6681 14.0068 16.2587 14.1721 16.7373 14.5241C17.216 14.8761 17.5498 15.3905 17.6762 15.971C17.8027 16.5516 17.713 17.1583 17.4241 17.6774C17.1352 18.1966 16.6669 18.5925 16.1069 18.7911C15.5469 18.9896 14.9338 18.9771 14.3824 18.7559C13.831 18.5346 13.3792 18.1199 13.1117 17.5894C12.8442 17.0589 12.7794 16.449 12.9295 15.8742L6.0779 12.068C5.74175 12.4219 5.30721 12.6669 4.8304 12.7714C4.3536 12.8758 3.85642 12.8349 3.4031 12.654C2.94977 12.473 2.56111 12.1603 2.28732 11.7562C2.01353 11.3521 1.86719 10.8752 1.86719 10.387C1.86719 9.89893 2.01353 9.42203 2.28732 9.01793C2.56111 8.61383 2.94977 8.3011 3.4031 8.12013C3.85642 7.93915 4.3536 7.89825 4.8304 8.00271C5.30721 8.10716 5.74175 8.35217 6.0779 8.70609L12.9295 4.89913C12.8775 4.69851 12.8512 4.49209 12.8514 4.28484Z" fill="#89898B"/>
</svg>
